<svg viewBox="0 0 98 96" width="98" height="96" xmlns="http://www.w3.org/2000/svg">
    <path fill="#ffffff" d="M49 .66C22.26.66 0 22.91 0 49.68c0 21.65 14.07 40.04 33.58 46.53 2.45.47 3.35-1.07 3.35-2.39 0-1.18-.04-4.33-.07-8.5-13.66 2.97-16.55-6.58-16.55-6.58-2.23-5.65-5.45-7.14-5.45-7.14-4.46-3.06.34-3 .34-3 4.94.34 7.55 5.07 7.55 5.07 4.38 7.48 11.48 5.32 14.28 4.07.44-3.17 1.72-5.32 3.12-6.55-10.92-1.25-22.39-5.47-22.39-24.36 0-5.38 1.92-9.78 5.07-13.22-.51-1.25-2.2-6.29.48-13.1 0 0 4.13-1.32 13.53 5.05 3.92-1.09 8.12-1.64 12.3-1.66 4.18.02 8.38.57 12.3 1.66 9.4-6.37 13.52-5.05 13.52-5.05 2.69 6.81.99 11.85.49 13.1 3.15 3.44 5.06 7.84 5.06 13.22 0 18.95-11.49 23.08-22.44 24.3 1.77 1.52 3.35 4.5 3.35 9.08 0 6.56-.06 11.83-.06 13.44 0 1.33.88 2.89 3.36 2.38 19.5-6.5 33.56-24.88 33.56-46.53 0-26.77-22.27-49.02-49.03-49.02z"/>
</svg>
