<svg viewBox="0 0 72 72" width="72" height="72" xmlns="http://www.w3.org/2000/svg">
    <rect fill="#0077B5" x="0" y="0" width="72" height="72" rx="10"/>
    <path fill="#ffffff" d="M16.65 27.3h9.42v29.4h-9.42zm4.71-14.7c3.03 0 5.49 2.46 5.49 5.49s-2.46 5.49-5.49 5.49c-3.03 0-5.49-2.46-5.49-5.49s2.46-5.49 5.49-5.49zm10.62 14.7h9.03v4.08h.12c1.26-2.37 4.35-4.86 8.97-4.86 9.6 0 11.37 6.3 11.37 14.49v15.69h-9.42V44.7c0-4.02-.06-9.21-5.64-9.21-5.67 0-6.54 4.41-6.54 8.91v12.61h-9.42V27.3z"/>
</svg>
